<svg width="78" height="78" viewBox="0 0 78 78" fill="none" xmlns="http://www.w3.org/2000/svg">
<circle cx="39.3867" cy="39.3008" r="35.4349" fill="#2786E1" stroke="white" stroke-width="6.09632"/>
<path d="M29.2461 53.4395V49.2179L39.1098 40.0848C39.9487 39.273 40.6523 38.5423 41.2206 37.8929C41.7979 37.2434 42.2354 36.6075 42.5331 35.985C42.8307 35.3536 42.9796 34.6726 42.9796 33.9419C42.9796 33.1301 42.7947 32.431 42.4248 31.8447C42.055 31.2494 41.5498 30.7938 40.9094 30.4781C40.269 30.1534 39.5428 29.991 38.731 29.991C37.8831 29.991 37.1434 30.1624 36.512 30.5052C35.8805 30.8479 35.3934 31.3396 35.0507 31.98C34.7079 32.6205 34.5365 33.3827 34.5365 34.2667H28.9755C28.9755 32.4536 29.3859 30.8795 30.2067 29.5445C31.0276 28.2095 32.1777 27.1767 33.657 26.446C35.1364 25.7154 36.8412 25.35 38.7716 25.35C40.7561 25.35 42.4835 25.7018 43.9538 26.4054C45.4331 27.1 46.5832 28.0652 47.4041 29.301C48.2249 30.5367 48.6353 31.9529 48.6353 33.5495C48.6353 34.5959 48.4279 35.6287 48.0129 36.648C47.607 37.6673 46.8809 38.7994 45.8345 40.0442C44.7882 41.28 43.3133 42.7639 41.41 44.4958L37.3644 48.4602V48.6496H49.0007V53.4395H29.2461Z" fill="white"/>
</svg>
