<svg width="78" height="78" viewBox="0 0 78 78" fill="none" xmlns="http://www.w3.org/2000/svg">
<circle cx="39.3867" cy="39.3008" r="35.4349" fill="#2786E1" stroke="white" stroke-width="6.09632"/>
<path d="M38.4887 53.8183C36.4681 53.8183 34.6686 53.471 33.09 52.7765C31.5205 52.0729 30.2802 51.1077 29.3691 49.8809C28.4671 48.6451 28.0025 47.2199 27.9755 45.6053H33.8748C33.9109 46.2818 34.1319 46.8771 34.5378 47.3913C34.9527 47.8964 35.503 48.2888 36.1885 48.5685C36.874 48.8481 37.6453 48.9879 38.5022 48.9879C39.3952 48.9879 40.1845 48.83 40.8701 48.5143C41.5556 48.1986 42.0923 47.7611 42.4802 47.2019C42.8681 46.6426 43.062 45.9977 43.062 45.267C43.062 44.5273 42.8546 43.8734 42.4396 43.3051C42.0337 42.7278 41.4474 42.2768 40.6806 41.952C39.9229 41.6273 39.0209 41.4649 37.9745 41.4649H35.3902V37.1622H37.9745C38.8585 37.1622 39.6388 37.0089 40.3153 36.7022C41.0009 36.3955 41.5331 35.9715 41.9119 35.4303C42.2908 34.8801 42.4802 34.2396 42.4802 33.509C42.4802 32.8144 42.3133 32.2055 41.9796 31.6823C41.6548 31.1501 41.1948 30.7352 40.5995 30.4375C40.0131 30.1399 39.3276 29.991 38.5428 29.991C37.749 29.991 37.0229 30.1353 36.3644 30.424C35.7059 30.7036 35.1782 31.105 34.7813 31.6282C34.3844 32.1514 34.1725 32.7648 34.1454 33.4684H28.5302C28.5573 31.8718 29.0128 30.4646 29.8968 29.2468C30.7808 28.0291 31.9715 27.0774 33.4689 26.3919C34.9753 25.6973 36.6756 25.35 38.5699 25.35C40.4822 25.35 42.1555 25.6973 43.5897 26.3919C45.0239 27.0865 46.138 28.0246 46.9318 29.2062C47.7346 30.3789 48.1315 31.6959 48.1224 33.1572C48.1315 34.7087 47.6489 36.0031 46.6747 37.0404C45.7095 38.0778 44.4512 38.7363 42.8997 39.0159V39.2324C44.9383 39.494 46.4898 40.2021 47.5542 41.3567C48.6276 42.5023 49.1598 43.9365 49.1508 45.6594C49.1598 47.238 48.7043 48.6406 47.7842 49.8674C46.8731 51.0942 45.6148 52.0593 44.0092 52.7629C42.4035 53.4665 40.5634 53.8183 38.4887 53.8183Z" fill="white"/>
</svg>
