<svg width="40" height="41" viewBox="0 0 40 41" fill="none" xmlns="http://www.w3.org/2000/svg">
<g clip-path="url(#clip0_21605_1386)">
<path d="M19.5967 40.4024C30.4196 40.4024 39.1933 31.5627 39.1933 20.6582C39.1933 9.75383 30.4196 0.914062 19.5967 0.914062C8.77372 0.914062 0 9.75383 0 20.6582C0 31.5627 8.77372 40.4024 19.5967 40.4024Z" fill="#F0F0F0"/>
<path d="M39.1916 20.661C39.1916 12.8332 34.6702 6.0696 28.1152 2.87598V38.446C34.6702 35.2524 39.1916 28.4888 39.1916 20.661Z" fill="#D80027"/>
<path d="M0 20.6591C0 28.4869 4.52139 35.2505 11.0764 38.4441V2.87402C4.52139 6.06764 0 12.8313 0 20.6591Z" fill="#D80027"/>
<path d="M23.0036 23.2348L26.4117 21.5179L24.7077 20.6595V18.9426L21.2996 20.6595L23.0036 17.2257H21.2996L19.5955 14.6504L17.8914 17.2257H16.1874L17.8914 20.6595L14.4833 18.9426V20.6595L12.7793 21.5179L16.1874 23.2348L15.3354 24.9517H18.7435V27.527H20.4475V24.9517H23.8556L23.0036 23.2348Z" fill="#D80027"/>
</g>
<defs>
<clipPath id="clip0_21605_1386">
<rect width="39.1933" height="39.4884" fill="white" transform="translate(0 0.914062)"/>
</clipPath>
</defs>
</svg>
