<svg width="40" height="41" viewBox="0 0 40 41" fill="none" xmlns="http://www.w3.org/2000/svg">
<g clip-path="url(#clip0_21606_1992)">
<path d="M20.3545 40.4024C31.1774 40.4024 39.9511 31.5627 39.9511 20.6582C39.9511 9.75383 31.1774 0.914062 20.3545 0.914062C9.53153 0.914062 0.757812 9.75383 0.757812 20.6582C0.757812 31.5627 9.53153 40.4024 20.3545 40.4024Z" fill="#F0F0F0"/>
<path d="M20.3553 0.912109C12.586 0.912109 5.87288 5.46754 2.70312 12.0719H38.0073C34.8377 5.46754 28.1245 0.912109 20.3553 0.912109Z" fill="#FF9811"/>
<path d="M20.3553 40.402C28.1245 40.402 34.8377 35.8465 38.0074 29.2422H2.70312C5.87288 35.8465 12.586 40.402 20.3553 40.402Z" fill="#6DA544"/>
<path d="M20.3533 27.525C24.1178 27.525 27.1695 24.4504 27.1695 20.6575C27.1695 16.8647 24.1178 13.79 20.3533 13.79C16.5888 13.79 13.5371 16.8647 13.5371 20.6575C13.5371 24.4504 16.5888 27.525 20.3533 27.525Z" fill="#0052B4"/>
<path d="M20.3539 24.9496C22.7067 24.9496 24.614 23.0279 24.614 20.6574C24.614 18.2869 22.7067 16.3652 20.3539 16.3652C18.0011 16.3652 16.0938 18.2869 16.0938 20.6574C16.0938 23.0279 18.0011 24.9496 20.3539 24.9496Z" fill="#F0F0F0"/>
<path d="M20.3554 15.3613L21.6696 18.3644L24.908 18.0096L22.9838 20.6579L24.908 23.3061L21.6696 22.9513L20.3554 25.9544L19.0411 22.9513L15.8027 23.306L17.7269 20.6579L15.8027 18.0096L19.0411 18.3644L20.3554 15.3613Z" fill="#0052B4"/>
</g>
<defs>
<clipPath id="clip0_21606_1992">
<rect width="39.1933" height="39.4884" fill="white" transform="translate(0.757812 0.914062)"/>
</clipPath>
</defs>
</svg>
