<svg width="13" height="174" viewBox="0 0 13 174" fill="none" xmlns="http://www.w3.org/2000/svg">
<line x1="6.75" y1="11.9141" x2="6.74999" y2="166.914" stroke="#333333" stroke-width="1.5"/>
<circle cx="6" cy="114.914" r="5.5" fill="white" stroke="#333333"/>
<path d="M3 113.914H9" stroke="black" stroke-width="0.8" stroke-linecap="round"/>
<path d="M3 115.914H9" stroke="black" stroke-width="0.8" stroke-linecap="round"/>
<g clip-path="url(#clip0_21606_1957)">
<rect width="12" height="12" transform="translate(0 161.914)" fill="white"/>
<path d="M3.72632 170.853L6 168.58L8.27368 170.853L8.93921 170.188L6.66553 167.914L8.93921 165.64L8.27368 164.975L6 167.249L3.72632 164.975L3.06079 165.64L5.33447 167.914L3.06079 170.188L3.72632 170.853ZM6.00111 173.914C5.17121 173.914 4.39116 173.757 3.66095 173.442C2.93074 173.127 2.29558 172.699 1.75547 172.159C1.21537 171.619 0.787737 170.985 0.472579 170.255C0.157526 169.525 0 168.745 0 167.915C0 167.085 0.157474 166.305 0.472421 165.575C0.787368 164.845 1.21479 164.21 1.75468 163.67C2.29458 163.129 2.92947 162.702 3.65937 162.387C4.38926 162.072 5.16911 161.914 5.99889 161.914C6.82879 161.914 7.60884 162.072 8.33905 162.386C9.06926 162.701 9.70442 163.129 10.2445 163.669C10.7846 164.209 11.2123 164.844 11.5274 165.573C11.8425 166.303 12 167.083 12 167.913C12 168.743 11.8425 169.523 11.5276 170.253C11.2126 170.983 10.7852 171.618 10.2453 172.159C9.70542 172.699 9.07053 173.126 8.34063 173.441C7.61074 173.757 6.83089 173.914 6.00111 173.914ZM6 172.967C7.41053 172.967 8.60526 172.477 9.58421 171.498C10.5632 170.519 11.0526 169.325 11.0526 167.914C11.0526 166.504 10.5632 165.309 9.58421 164.33C8.60526 163.351 7.41053 162.861 6 162.861C4.58947 162.861 3.39474 163.351 2.41579 164.33C1.43684 165.309 0.947368 166.504 0.947368 167.914C0.947368 169.325 1.43684 170.519 2.41579 171.498C3.39474 172.477 4.58947 172.967 6 172.967Z" fill="#333333"/>
</g>
<circle cx="7" cy="6.91406" r="5.5" fill="white" stroke="#333333"/>
<path d="M4 6.91406H10" stroke="black" stroke-width="0.8" stroke-linecap="round"/>
<defs>
<clipPath id="clip0_21606_1957">
<rect width="12" height="12" fill="white" transform="translate(0 161.914)"/>
</clipPath>
</defs>
</svg>
