<svg width="24" height="24" viewBox="0 0 24 24" fill="none" xmlns="http://www.w3.org/2000/svg">
<path d="M3.60036 7.79511C3.60036 8.49861 3.85836 9.27186 4.18611 10.0924C4.51386 10.9129 4.93611 11.6861 5.26461 12.2719C6.15561 13.8191 7.30386 15.3424 8.61636 16.6076C9.92886 17.8729 11.4761 18.9281 13.2101 19.5611C14.2181 19.9594 15.2261 20.4049 16.3511 20.4049C16.9136 20.4049 17.7109 20.1941 18.4369 19.8889C19.1404 19.5844 19.7726 19.1156 20.0074 18.5531C20.1011 18.3424 20.2181 18.0611 20.2886 17.7326C20.3591 17.4281 20.4056 17.1229 20.4056 16.9121C20.4056 16.7951 20.4056 16.6774 20.3824 16.6541C20.3119 16.5131 20.1476 16.3961 19.9601 16.2791C19.5379 16.0684 19.4681 15.9979 18.8351 15.6229C18.1789 15.2479 17.4994 14.8256 16.9129 14.5211C16.6316 14.3569 16.4441 14.2864 16.3736 14.2864C15.9986 14.2864 15.5299 14.8024 15.1316 15.3649C14.7094 15.9274 14.2406 16.4434 13.9129 16.4434C13.7486 16.4434 13.5844 16.3729 13.3969 16.2559C13.2094 16.1389 13.0219 16.0451 12.9049 15.9746C10.8424 14.8024 9.45936 13.4201 8.28786 11.3809C8.14686 11.1461 7.81911 10.6541 7.81911 10.3961C7.81911 10.0916 8.24136 9.73986 8.66286 9.36486C9.06111 9.01311 9.48336 8.59161 9.48336 8.07561C9.48336 8.00511 9.43611 7.79436 9.34236 7.48986C9.13161 6.88011 8.85036 6.17736 8.61561 5.49786C8.49861 5.16936 8.40486 4.93536 8.38086 4.81836C8.33361 4.74786 8.31036 4.65411 8.28711 4.53711C8.26386 4.42011 8.21661 4.32636 8.19336 4.23261C8.12286 4.02186 8.00586 3.85761 7.88886 3.76386C7.77186 3.71661 7.49061 3.64686 7.20936 3.62286C6.92811 3.62286 6.59961 3.59961 6.45936 3.59961C6.38886 3.59961 6.29511 3.59961 6.20136 3.62286H5.89686C5.14686 3.95136 4.60761 4.60761 4.20936 5.38086C3.83436 6.15411 3.59961 7.02186 3.59961 7.79511H3.60036Z" fill="#333333"/>
</svg>
