<svg width="43" height="43" viewBox="0 0 43 43" fill="none" xmlns="http://www.w3.org/2000/svg">
<rect x="0.5" y="0.103516" width="41.8964" height="42" rx="20.9482" fill="#2277C8"/>
<path fill-rule="evenodd" clip-rule="evenodd" d="M30.4483 24.8376L31.502 25.9359L26.5775 31.1834L21.653 25.9359L22.7066 24.8376L25.8445 28.1814V11.7312H27.3104V28.1814L30.4483 24.8376ZM16.3157 11.0234L21.2402 16.2709L20.1866 17.3692L17.0487 14.0255V30.4756H15.5828L15.5828 14.0255L12.4448 17.3692L11.3912 16.2709L16.3157 11.0234Z" fill="white"/>
<path d="M31.502 25.9359L31.5622 25.9925L31.6158 25.9353L31.5616 25.8788L31.502 25.9359ZM30.4483 24.8376L30.5079 24.7805L30.4477 24.7177L30.3881 24.7811L30.4483 24.8376ZM26.5775 31.1834L26.5172 31.2399L26.5775 31.3041L26.6377 31.2399L26.5775 31.1834ZM21.653 25.9359L21.5934 25.8788L21.5391 25.9353L21.5927 25.9925L21.653 25.9359ZM22.7066 24.8376L22.7668 24.7811L22.7072 24.7177L22.647 24.7805L22.7066 24.8376ZM25.8445 28.1814L25.7843 28.2379L25.9271 28.3901V28.1814H25.8445ZM25.8445 11.7312V11.6486H25.7619V11.7312H25.8445ZM27.3104 11.7312H27.393V11.6486H27.3104V11.7312ZM27.3104 28.1814H27.2278V28.3901L27.3706 28.2379L27.3104 28.1814ZM21.2402 16.2709L21.2998 16.3281L21.3541 16.2715L21.3004 16.2144L21.2402 16.2709ZM16.3157 11.0234L16.3759 10.9669L16.3157 10.9028L16.2555 10.9669L16.3157 11.0234ZM20.1866 17.3692L20.1264 17.4257L20.1859 17.4892L20.2462 17.4264L20.1866 17.3692ZM17.0487 14.0255L17.1089 13.969L16.9661 13.8168V14.0255H17.0487ZM17.0487 30.4756V30.5582H17.1312V30.4756H17.0487ZM15.5828 30.4756H15.5002V30.5582H15.5828V30.4756ZM15.5828 14.0255H15.6653V13.8168L15.5225 13.969L15.5828 14.0255ZM12.4448 17.3692L12.3852 17.4264L12.4455 17.4892L12.505 17.4257L12.4448 17.3692ZM11.3912 16.2709L11.331 16.2144L11.2774 16.2715L11.3316 16.3281L11.3912 16.2709ZM31.5616 25.8788L30.5079 24.7805L30.3887 24.8948L31.4424 25.9931L31.5616 25.8788ZM26.6377 31.2399L31.5622 25.9925L31.4417 25.8794L26.5172 31.1269L26.6377 31.2399ZM21.5927 25.9925L26.5172 31.2399L26.6377 31.1269L21.7132 25.8794L21.5927 25.9925ZM22.647 24.7805L21.5934 25.8788L21.7125 25.9931L22.7662 24.8948L22.647 24.7805ZM25.9047 28.1249L22.7668 24.7811L22.6463 24.8942L25.7843 28.2379L25.9047 28.1249ZM25.7619 11.7312V28.1814H25.9271V11.7312H25.7619ZM27.3104 11.6486H25.8445V11.8138H27.3104V11.6486ZM27.393 28.1814V11.7312H27.2278V28.1814H27.393ZM30.3881 24.7811L27.2502 28.1249L27.3706 28.2379L30.5086 24.8942L30.3881 24.7811ZM21.3004 16.2144L16.3759 10.9669L16.2555 11.08L21.18 16.3274L21.3004 16.2144ZM20.2462 17.4264L21.2998 16.3281L21.1806 16.2137L20.127 17.312L20.2462 17.4264ZM16.9884 14.082L20.1264 17.4257L20.2468 17.3127L17.1089 13.969L16.9884 14.082ZM17.1312 30.4756V14.0255H16.9661V30.4756H17.1312ZM15.5828 30.5582H17.0487V30.3931H15.5828V30.5582ZM15.5002 14.0255V30.4756H15.6653L15.6653 14.0255H15.5002ZM12.505 17.4257L15.643 14.082L15.5225 13.969L12.3846 17.3127L12.505 17.4257ZM11.3316 16.3281L12.3852 17.4264L12.5044 17.312L11.4508 16.2137L11.3316 16.3281ZM16.2555 10.9669L11.331 16.2144L11.4514 16.3274L16.3759 11.08L16.2555 10.9669Z" fill="white"/>
</svg>
