<svg width="21" height="22" viewBox="0 0 21 22" fill="none" xmlns="http://www.w3.org/2000/svg">
<path fill-rule="evenodd" clip-rule="evenodd" d="M19.4483 14.8376L20.502 15.9359L15.5775 21.1834L10.653 15.9359L11.7066 14.8376L14.8445 18.1814V1.7312L16.3104 1.7312V18.1814L19.4483 14.8376ZM5.31571 1.02344L10.2402 6.27089L9.1866 7.3692L6.04866 4.02547L6.04866 20.4756H4.58276L4.58276 4.02547L1.44482 7.3692L0.391207 6.27089L5.31571 1.02344Z" fill="white"/>
<path d="M20.502 15.9359L20.5622 15.9925L20.6158 15.9353L20.5616 15.8788L20.502 15.9359ZM19.4483 14.8376L19.5079 14.7805L19.4477 14.7177L19.3881 14.7811L19.4483 14.8376ZM15.5775 21.1834L15.5172 21.2399L15.5775 21.3041L15.6377 21.2399L15.5775 21.1834ZM10.653 15.9359L10.5934 15.8788L10.5391 15.9353L10.5927 15.9925L10.653 15.9359ZM11.7066 14.8376L11.7668 14.7811L11.7072 14.7177L11.647 14.7805L11.7066 14.8376ZM14.8445 18.1814L14.7843 18.2379L14.9271 18.3901V18.1814H14.8445ZM14.8445 1.7312V1.64861H14.7619V1.7312H14.8445ZM16.3104 1.7312H16.393V1.64861H16.3104V1.7312ZM16.3104 18.1814H16.2278V18.3901L16.3706 18.2379L16.3104 18.1814ZM10.2402 6.27089L10.2998 6.32807L10.3541 6.27152L10.3004 6.21438L10.2402 6.27089ZM5.31571 1.02344L5.37593 0.966922L5.31571 0.902751L5.25549 0.966922L5.31571 1.02344ZM9.1866 7.3692L9.12637 7.42571L9.18594 7.48918L9.24619 7.42637L9.1866 7.3692ZM6.04866 4.02547L6.10888 3.96896L5.96607 3.81678V4.02547H6.04866ZM6.04866 20.4756V20.5582H6.13124V20.4756H6.04866ZM4.58276 20.4756H4.50017V20.5582H4.58276V20.4756ZM4.58276 4.02547H4.66535V3.81678L4.52254 3.96896L4.58276 4.02547ZM1.44482 7.3692L1.38523 7.42637L1.44548 7.48918L1.50504 7.42571L1.44482 7.3692ZM0.391207 6.27089L0.330986 6.21438L0.277361 6.27152L0.33161 6.32807L0.391207 6.27089ZM20.5616 15.8788L19.5079 14.7805L19.3887 14.8948L20.4424 15.9931L20.5616 15.8788ZM15.6377 21.2399L20.5622 15.9925L20.4417 15.8794L15.5172 21.1269L15.6377 21.2399ZM10.5927 15.9925L15.5172 21.2399L15.6377 21.1269L10.7132 15.8794L10.5927 15.9925ZM11.647 14.7805L10.5934 15.8788L10.7125 15.9931L11.7662 14.8948L11.647 14.7805ZM14.9047 18.1249L11.7668 14.7811L11.6463 14.8942L14.7843 18.2379L14.9047 18.1249ZM14.7619 1.7312V18.1814H14.9271V1.7312H14.7619ZM16.3104 1.64861L14.8445 1.64861V1.81379L16.3104 1.81379V1.64861ZM16.393 18.1814V1.7312H16.2278V18.1814H16.393ZM19.3881 14.7811L16.2502 18.1249L16.3706 18.2379L19.5086 14.8942L19.3881 14.7811ZM10.3004 6.21438L5.37593 0.966922L5.25549 1.07995L10.18 6.32741L10.3004 6.21438ZM9.24619 7.42637L10.2998 6.32807L10.1806 6.21372L9.127 7.31203L9.24619 7.42637ZM5.98844 4.08199L9.12637 7.42571L9.24682 7.31268L6.10888 3.96896L5.98844 4.08199ZM6.13124 20.4756L6.13124 4.02547H5.96607L5.96607 20.4756H6.13124ZM4.58276 20.5582H6.04866V20.3931H4.58276V20.5582ZM4.50017 4.02547V20.4756H4.66535L4.66535 4.02547H4.50017ZM1.50504 7.42571L4.64298 4.08199L4.52254 3.96896L1.3846 7.31268L1.50504 7.42571ZM0.33161 6.32807L1.38523 7.42637L1.50442 7.31203L0.450804 6.21372L0.33161 6.32807ZM5.25549 0.966922L0.330986 6.21438L0.451427 6.32741L5.37593 1.07995L5.25549 0.966922Z" fill="white"/>
</svg>
