<svg id="Layer_1" data-name="Layer 1" xmlns="http://www.w3.org/2000/svg" viewBox="0 0 3320.53 3393.5"><defs><style>.cls-1{fill:#2e96fd;}.cls-2{fill:#f57221;}.cls-3{fill:#049e1f;}.cls-4{fill:#4f51fb;}.cls-5{fill:none;}</style></defs><path class="cls-1" d="M3271.14,1348.41c0,132.58-20.36,258-59,373.8l-457.35-382.59L1942.56,660.1v337H1206.7c-409.8,0-752.16,288.12-835.06,673.16A30.7,30.7,0,0,0,371,1674V669.87C371,400,589.75,181.25,859.61,181.25H1960.16c609,0,1087.67,300.51,1250.55,785.71C3250.12,1083.9,3271.14,1211.59,3271.14,1348.41Z" transform="translate(-370.98 -181.25)"/><path class="cls-2" d="M3691.52,3466.76H2566.7a488.47,488.47,0,0,1-305.55-107.33L1942.56,3104.2V2003.66l527.07,440.9Z" transform="translate(-370.98 -181.25)"/><path class="cls-3" d="M1942.56,1670.25V2520l-706.38.82v1054H371V2558.41c0-472.66,369.4-870.89,841.74-887.67,10.59-.32,21.34-.49,32.09-.49Z" transform="translate(-370.98 -181.25)"/><path class="cls-4" d="M3271.14,1348.41c0,132.58-20.36,258-59,373.8-82.25,247.9-248.06,452.63-475.75,593,0,0-74.93,70.85-266.79,129.32-123.46,37.78-295.46,70.36-527.07,75.41V2003.66l812.26-664L3210.71,967C3250.12,1083.9,3271.14,1211.59,3271.14,1348.41Z" transform="translate(-370.98 -181.25)"/><line class="cls-5" x1="2383.84" y1="1158.37" x2="1571.58" y2="478.85"/></svg>