<?xml version="1.0" encoding="UTF-8"?>
<svg id="Layer_1" xmlns="http://www.w3.org/2000/svg" version="1.1" viewBox="0 0 2982.6 1508.7">
  <!-- Generator: Adobe Illustrator 29.2.1, SVG Export Plug-In . SVG Version: 2.1.0 Build 116)  -->
  <path d="M797.3,687.4c0,16.8-2.6,32.6-7.5,47.3l-57.8-48.4-102.7-85.9v42.6h-93.1c-51.8,0-95.1,36.4-105.6,85.1,0,.2,0,.3,0,.5v-127c0-34.1,27.7-61.8,61.8-61.8h139.2c77,0,137.5,38,158.1,99.4,5,14.8,7.6,30.9,7.6,48.2Z" fill="#2e96fd"/>
  <g>
    <path d="M1069.4,903.9l-57.7-99.1h-42.6v99.1h-56.3v-285.4h114.1c26.4,0,48.8,9.2,67.3,27.7,18.5,18.5,27.7,40.8,27.7,66.9s-5,34-15.1,49.1c-10.1,15.1-23.4,26.4-39.9,34l63.2,107.6h-60.7ZM969.2,671.1v84.4h57.9c10.6,0,19.7-4.1,27.3-12.4,7.6-8.3,11.4-18.3,11.4-30s-3.8-21.6-11.4-29.8c-7.6-8.2-16.7-12.2-27.3-12.2h-57.9Z"/>
    <path d="M1190.9,823.6c7.1,25.5,26.2,38.3,57.5,38.3s35.3-6.8,45.7-20.4l42.4,24.5c-20.1,29.1-49.7,43.6-88.9,43.6s-60.7-10.2-81.1-30.6c-20.4-20.4-30.6-46.1-30.6-77s10.1-56.3,30.2-76.8c20.1-20.5,45.9-30.8,77.5-30.8s54.6,10.3,74,31c19.4,20.7,29.1,46.2,29.1,76.6s-.7,14-2,21.6h-153.7ZM1190.1,782.8h104c-3-13.9-9.2-24.2-18.5-31-9.4-6.8-20-10.2-32-10.2s-25.8,3.6-35.1,10.8c-9.2,7.2-15.4,17.3-18.3,30.4Z"/>
    <path d="M1604.7,694.3c23.4,0,42.1,7.6,56.1,22.8,14,15.2,21,35.6,21,61.1v125.6h-52.6v-121.9c0-12.2-3-21.7-9-28.5-6-6.8-14.4-10.2-25.3-10.2s-21.3,3.9-27.9,11.8c-6.7,7.9-10,19.3-10,34.2v114.6h-52.6v-121.9c0-12.2-3-21.7-9-28.5-6-6.8-14.4-10.2-25.3-10.2s-21,3.9-27.9,11.8c-6.9,7.9-10.4,19.3-10.4,34.2v114.6h-52.6v-203.8h52.6v21.6c12.2-18.2,31.1-27.3,56.7-27.3s43.5,9.8,55.4,29.4c13.6-19.6,33.8-29.4,60.7-29.4Z"/>
    <path d="M1748.6,675.6c-8.7,0-16.2-3.2-22.6-9.6-6.4-6.4-9.6-13.9-9.6-22.6s3.2-16.3,9.6-22.8c6.4-6.5,13.9-9.8,22.6-9.8s16.6,3.3,23,9.8c6.4,6.5,9.6,14.1,9.6,22.8s-3.2,16.2-9.6,22.6c-6.4,6.4-14.1,9.6-23,9.6ZM1722.5,903.9v-203.8h52.6v203.8h-52.6Z"/>
    <path d="M1928.8,612.8c17.7,0,40.8,2.9,69.3,8.6v282.5h-52.6v-244.6c-3.8-.3-9.4-.4-16.7-.4-28.8,0-43.2,13-43.2,39.1v2h33.8v50.6h-33.8v153.3h-52.6v-153.3h-29.4v-50.6h29.4v-2c0-56.8,31.9-85.2,95.8-85.2Z"/>
    <path d="M2215.8,878.4c-20.9,20.8-46.5,31.2-76.6,31.2s-55.6-10.4-76.4-31.2-31.2-46.3-31.2-76.4,10.4-55.6,31.2-76.4c20.8-20.8,46.3-31.2,76.4-31.2s55.7,10.4,76.6,31.2c20.9,20.8,31.4,46.3,31.4,76.4s-10.5,55.6-31.4,76.4ZM2099.8,842.3c10.5,10.6,23.6,15.9,39.3,15.9s28.9-5.3,39.5-15.9c10.6-10.6,15.9-24.1,15.9-40.4s-5.3-29.8-15.9-40.4c-10.6-10.6-23.8-15.9-39.5-15.9s-28.9,5.3-39.3,15.9c-10.5,10.6-15.7,24.1-15.7,40.4s5.2,29.8,15.7,40.4Z"/>
    <path d="M2501.5,700h50.5l-59.4,203.8h-51.5l-38.6-123.5-38.6,123.5h-51.5l-59.9-203.8h55.6l34.9,125.2,37.1-125.2h49.8l37.1,125.6,34.6-125.6Z"/>
  </g>
  <path d="M850.5,955.3h-142.2c-14,0-27.7-4.8-38.6-13.6l-40.3-32.3v-139.2l66.7,55.8,154.5,129.3Z" fill="#f57221"/>
  <path d="M629.3,728.1v107.5h-89.3v133.4h-109.4v-128.5c0-59.8,46.7-110.1,106.4-112.3,1.3,0,2.7,0,4.1,0h88.2Z" fill="#049e1f"/>
  <path d="M797.3,687.4c0,16.8-2.6,32.6-7.5,47.3-10.4,31.3-31.4,57.2-60.2,75,0,0-9.5,9-33.7,16.4-15.6,4.8-37.4,8.9-66.7,9.5v-65.3l102.7-84,57.7-47.1c5,14.8,7.6,30.9,7.6,48.2Z" fill="#4f51fb"/>
  <line x1="732" y1="686.3" x2="629.3" y2="600.3" fill="none"/>
</svg>