<svg width="64" height="64" viewBox="0 0 64 64" fill="none" xmlns="http://www.w3.org/2000/svg">
<g clip-path="url(#clip0_21636_1220)">
<path d="M31.9999 63.9999C49.673 63.9999 63.9999 49.673 63.9999 31.9999C63.9999 14.3269 49.673 0 31.9999 0C14.3269 0 0 14.3269 0 31.9999C0 49.673 14.3269 63.9999 31.9999 63.9999Z" fill="#3A99D7"/>
<path d="M37.5717 63.512L18.9878 45.1646L21.7328 42.5844L16.9309 40.0329C16.293 30.9381 17.583 21.9221 27.7171 21.2915V23.4488L36.2815 17.1132L37.0054 17.8586L37.9301 17.1778L33.5798 13.6445L45.9355 19.8367L63.5518 37.3311C61.3158 50.6473 50.8519 61.1826 37.5646 63.512H37.5717Z" fill="#2682BF"/>
<path d="M31.9999 63.9999C49.673 63.9999 63.9999 49.673 63.9999 31.9999C63.9999 14.3269 49.673 0 31.9999 0C14.3269 0 0 14.3269 0 31.9999C0 49.673 14.3269 63.9999 31.9999 63.9999Z" fill="#1E3B60"/>
<path d="M55.6328 32.6386C55.6328 33.0608 55.6328 39.2479 55.6328 41.7264C55.6328 42.571 54.9719 42.7362 54.5129 42.7362C54.0355 42.7362 48.8398 42.7362 48.8398 42.7362C47.7199 44.1682 46.2879 45.435 44.6355 46.5366V51.5304C44.6355 52.2647 44.0297 52.8706 43.2953 52.8706H38.4117C37.6773 52.8706 37.0715 52.2647 37.0715 51.5304V49.7495C35.052 50.2268 32.8855 50.4839 30.6457 50.4839C28.1855 50.4839 25.8355 50.1718 23.6508 49.6026V51.5304C23.6508 52.2647 23.0449 52.8706 22.3105 52.8706H17.4086C16.6742 52.8706 16.0684 52.2647 16.0684 51.5304V46.1511C12.066 43.287 9.55078 39.2663 9.55078 34.8233C9.55078 29.0952 13.7 24.1014 19.8871 21.3659H19.9422C21.3375 25.4233 25.193 28.3608 29.7277 28.3608C34.4828 28.3608 38.5219 25.1296 39.7336 20.7233C40.7801 21.0905 41.7715 21.5128 42.7078 22.0085C43.6441 19.9889 46.7836 17.7675 51.2082 18.7038C51.7039 18.8139 51.9793 19.3464 51.7773 19.8237L48.7664 26.8554C49.9965 28.3792 50.8777 30.0866 51.3367 31.8858C51.3367 31.8858 54.0539 31.8858 54.6781 31.8858C55.284 31.8858 55.6328 32.1061 55.6328 32.6386ZM21.5762 18.0796C21.5395 13.453 25.2664 9.68934 29.9113 9.76278C34.3176 9.83621 37.916 13.4347 37.9895 17.8409C38.0629 22.5409 34.2074 26.3413 29.5074 26.1944C25.1379 26.0659 21.6129 22.4675 21.5762 18.0796ZM30.8477 19.9155C30.8477 20.4847 30.3887 20.8886 29.4523 20.8886C28.5711 20.8886 27.7449 20.5764 27.2309 20.3194L26.8086 21.9901C27.2859 22.2655 28.2773 22.5225 29.2504 22.5225V23.771H30.3887V22.4858C32.0594 22.1186 32.8305 21.1272 32.8305 19.8421C32.8305 18.5569 32.1145 17.7675 30.5539 17.1983C29.4156 16.7393 28.8832 16.519 28.8832 15.9499C28.8832 15.5276 29.3422 15.1237 30.1684 15.1237C30.9945 15.1237 31.6187 15.3807 31.9859 15.546L32.4449 13.9304C31.9492 13.655 31.2699 13.4714 30.3152 13.4714V12.1862H29.177V13.5448C27.6531 13.8569 26.827 14.83 26.827 16.0784C26.827 17.437 27.7633 18.1897 29.2688 18.7222C30.407 19.1077 30.8477 19.3464 30.8477 19.9155Z" fill="#FDFDFD"/>
</g>
<defs>
<clipPath id="clip0_21636_1220">
<rect width="64" height="64" fill="white"/>
</clipPath>
</defs>
</svg>
