<svg width="64" height="64" viewBox="0 0 64 64" fill="none" xmlns="http://www.w3.org/2000/svg">
<g clip-path="url(#clip0_21633_1182)">
<path d="M31.9999 63.9999C49.673 63.9999 63.9999 49.673 63.9999 31.9999C63.9999 14.3269 49.673 0 31.9999 0C14.3269 0 0 14.3269 0 31.9999C0 49.673 14.3269 63.9999 31.9999 63.9999Z" fill="#3A99D7"/>
<path d="M37.5717 63.512L18.9878 45.1646L21.7328 42.5844L16.9309 40.0329C16.293 30.9381 17.583 21.9221 27.7171 21.2915V23.4488L36.2815 17.1132L37.0054 17.8586L37.9301 17.1778L33.5798 13.6445L45.9355 19.8367L63.5518 37.3311C61.3158 50.6473 50.8519 61.1826 37.5646 63.512H37.5717Z" fill="#2682BF"/>
<path d="M31.9999 63.9999C49.673 63.9999 63.9999 49.673 63.9999 31.9999C63.9999 14.3269 49.673 0 31.9999 0C14.3269 0 0 14.3269 0 31.9999C0 49.673 14.3269 63.9999 31.9999 63.9999Z" fill="#1E3B60"/>
<g clip-path="url(#clip1_21633_1182)">
<path d="M19.3074 15.9326H52.2719C52.87 15.9326 53.3274 16.39 53.3274 16.988V37.4985C53.3274 38.0966 52.87 38.554 52.2719 38.554H19.3074C18.7093 38.554 18.252 38.0966 18.252 37.4985V16.988C18.252 16.39 18.7093 15.9326 19.3074 15.9326Z" fill="#FDFDFD"/>
<path d="M52.2724 39.2571H19.3079C18.3228 39.2571 17.5488 38.4831 17.5488 37.4981V16.9876C17.5488 16.0025 18.3228 15.2285 19.3079 15.2285H52.2724C53.2575 15.2285 54.0315 16.0025 54.0315 16.9876V37.4981C54.0315 38.4479 53.2575 39.2571 52.2724 39.2571ZM19.3079 16.6358C19.0968 16.6358 18.9561 16.7765 18.9561 16.9876V37.4981C18.9561 37.7091 19.0968 37.8499 19.3079 37.8499H52.2724C52.4835 37.8499 52.6242 37.7091 52.6242 37.4981V16.9876C52.6242 16.7765 52.4835 16.6358 52.2724 16.6358H19.3079Z" fill="#131313"/>
<path d="M16.3171 18.9229H49.3169C49.915 18.9229 50.3723 19.3802 50.3723 19.9783V40.4888C50.3723 41.0868 49.915 41.5442 49.3169 41.5442H16.3171C15.7191 41.5442 15.2617 41.0868 15.2617 40.4888V19.9783C15.2617 19.3802 15.7191 18.9229 16.3171 18.9229Z" fill="#FDFDFD"/>
<path d="M49.2822 42.2473H16.3176C15.3326 42.2473 14.5586 41.4734 14.5586 40.4883V19.9778C14.5586 18.9927 15.3326 18.2188 16.3176 18.2188H49.3174C50.3024 18.2188 51.0764 18.9927 51.0764 19.9778V40.4883C51.0412 41.4382 50.2672 42.2473 49.2822 42.2473ZM16.3176 19.626C16.1066 19.626 15.9658 19.7667 15.9658 19.9778V40.4883C15.9658 40.6994 16.1066 40.8401 16.3176 40.8401H49.3174C49.5284 40.8401 49.6692 40.6994 49.6692 40.4883V19.9778C49.6692 19.7667 49.5284 19.626 49.3174 19.626H16.3176Z" fill="#131313"/>
<path d="M13.573 21.8428H46.5727C47.1708 21.8428 47.6282 22.3001 47.6282 22.8982V43.4087C47.6282 44.0068 47.1708 44.4641 46.5727 44.4641H13.573C12.9749 44.4641 12.5176 44.0068 12.5176 43.4087V22.8982C12.5176 22.3353 12.9749 21.8428 13.573 21.8428Z" fill="#FDFDFD"/>
<path d="M46.5732 45.1673H13.5735C12.5884 45.1673 11.8145 44.3933 11.8145 43.4082V22.8977C11.8145 21.9127 12.5884 21.1387 13.5735 21.1387H46.5732C47.5583 21.1387 48.3323 21.9127 48.3323 22.8977V43.4082C48.3323 44.3581 47.5231 45.1673 46.5732 45.1673ZM13.5735 22.5459C13.3624 22.5459 13.2217 22.6866 13.2217 22.8977V43.4082C13.2217 43.6193 13.3624 43.76 13.5735 43.76H46.5732C46.7843 43.76 46.925 43.6193 46.925 43.4082V22.8977C46.925 22.6866 46.7843 22.5459 46.5732 22.5459H13.5735Z" fill="#131313"/>
<path d="M10.7586 24.4453H43.7583C44.3564 24.4453 44.8137 24.9027 44.8137 25.5007V46.0112C44.8137 46.6093 44.3564 47.0667 43.7583 47.0667H10.7586C10.1605 47.0667 9.70312 46.6093 9.70313 46.0112V25.5007C9.70313 24.9378 10.1605 24.4453 10.7586 24.4453Z" fill="#FDFDFD"/>
<path d="M43.7588 47.7708H10.759C9.77398 47.7708 9 46.9968 9 46.0117V25.5012C9 24.5162 9.77398 23.7422 10.759 23.7422H43.7588C44.7438 23.7422 45.5178 24.5162 45.5178 25.5012V46.0117C45.5178 46.9968 44.7087 47.7708 43.7588 47.7708ZM10.759 25.1494C10.548 25.1494 10.4072 25.2901 10.4072 25.5012V46.0117C10.4072 46.2228 10.548 46.3635 10.759 46.3635H43.7588C43.9699 46.3635 44.1106 46.2228 44.1106 46.0117V25.5012C44.1106 25.2901 43.9699 25.1494 43.7588 25.1494H10.759Z" fill="#131313"/>
<path d="M39.3257 43.9014H15.1916C15.1916 42.2479 13.8195 40.8758 12.166 40.8758V30.2511C13.8195 30.2511 15.1916 28.8791 15.1916 27.2256H39.3257C39.3257 28.8791 40.6978 30.2511 42.3513 30.2511V40.8758C40.6626 40.8758 39.3257 42.2479 39.3257 43.9014Z" fill="#FDFDFD"/>
<path d="M39.3262 44.6055H15.1921C14.8051 44.6055 14.4885 44.2888 14.4885 43.9018C14.4885 42.6353 13.433 41.5799 12.1665 41.5799C11.7795 41.5799 11.4629 41.2633 11.4629 40.8763V30.2516C11.4629 29.8647 11.7795 29.548 12.1665 29.548C13.433 29.548 14.4885 28.4926 14.4885 27.2261C14.4885 26.8391 14.8051 26.5225 15.1921 26.5225H39.3262C39.7132 26.5225 40.0298 26.8391 40.0298 27.2261C40.0298 28.4926 41.0852 29.548 42.3518 29.548C42.7388 29.548 43.0554 29.8647 43.0554 30.2516V40.8763C43.0554 41.2633 42.7388 41.5799 42.3518 41.5799C41.0852 41.5799 40.0298 42.6353 40.0298 43.9018C40.0298 44.2888 39.7132 44.6055 39.3262 44.6055ZM15.8253 43.1982H38.6578C38.9392 41.7206 40.1354 40.5245 41.613 40.243V30.8849C40.1354 30.6034 38.9392 29.4073 38.6578 27.9297H15.8253C15.5439 29.4073 14.3477 30.6034 12.8701 30.8849V40.2078C14.3477 40.5245 15.5439 41.7206 15.8253 43.1982Z" fill="#131313"/>
<path d="M27.3305 40.3489C26.2047 40.3489 25.0085 39.9267 24.1642 38.8361C23.9179 38.5195 23.9883 38.0973 24.2697 37.851C24.5864 37.6048 25.0085 37.6751 25.2548 37.9566C26.0991 39.0472 27.4008 39.0824 28.2452 38.8009C28.9488 38.5547 29.371 38.0973 29.371 37.6048C29.371 37.1474 28.2804 36.8308 27.3305 36.5493C25.8529 36.092 23.9883 35.5643 23.9883 33.8052C23.9883 32.9609 24.516 32.1869 25.4307 31.7296C26.5565 31.1667 28.4563 30.9556 30.2505 32.2573C30.5671 32.5035 30.6375 32.9257 30.3912 33.2423C30.1449 33.559 29.7228 33.6293 29.4061 33.3831C28.21 32.5035 26.8731 32.5387 26.064 32.9609C25.6418 33.172 25.3603 33.4886 25.3603 33.8052C25.3603 34.4737 26.3454 34.7903 27.6823 35.2125C29.1247 35.6346 30.7078 36.1272 30.7078 37.6048C30.7078 38.6954 29.8987 39.6805 28.6322 40.1378C28.2804 40.2433 27.7878 40.3489 27.3305 40.3489Z" fill="#131313"/>
<path d="M27.2583 32.6788C26.8713 32.6788 26.5547 32.3622 26.5547 31.9752V30.4273C26.5547 30.0403 26.8713 29.7236 27.2583 29.7236C27.6453 29.7236 27.9619 30.0403 27.9619 30.4273V31.9752C27.9619 32.3974 27.6453 32.6788 27.2583 32.6788Z" fill="#131313"/>
<path d="M27.2583 41.6834C26.8713 41.6834 26.5547 41.3668 26.5547 40.9798V39.8189C26.5547 39.4319 26.8713 39.1152 27.2583 39.1152C27.6453 39.1152 27.9619 39.4319 27.9619 39.8189V40.9798C27.9619 41.3668 27.6453 41.6834 27.2583 41.6834Z" fill="#131313"/>
<path d="M16.7754 35.9853C16.7754 36.1562 16.8091 36.3255 16.8745 36.4834C16.9399 36.6414 17.0358 36.7849 17.1566 36.9057C17.2775 37.0266 17.421 37.1225 17.5789 37.1879C17.7369 37.2533 17.9061 37.287 18.0771 37.287C18.248 37.287 18.4173 37.2533 18.5752 37.1879C18.7332 37.1225 18.8766 37.0266 18.9975 36.9057C19.1184 36.7849 19.2143 36.6414 19.2797 36.4834C19.3451 36.3255 19.3788 36.1562 19.3788 35.9853C19.3788 35.6401 19.2416 35.309 18.9975 35.0649C18.7534 34.8207 18.4223 34.6836 18.0771 34.6836C17.7319 34.6836 17.4008 34.8207 17.1566 35.0649C16.9125 35.309 16.7754 35.6401 16.7754 35.9853Z" fill="#FDFDFD"/>
<path d="M18.0756 37.9559C16.985 37.9559 16.0703 37.0764 16.0703 35.9506C16.0703 34.8248 16.9498 33.9453 18.0756 33.9453C19.1662 33.9453 20.0809 34.8248 20.0809 35.9506C20.0809 37.0764 19.1662 37.9559 18.0756 37.9559ZM18.0756 35.3877C17.759 35.3877 17.4776 35.634 17.4776 35.9858C17.4776 36.3376 17.7238 36.5839 18.0756 36.5839C18.3923 36.5839 18.6737 36.3376 18.6737 35.9858C18.6737 35.634 18.3923 35.3877 18.0756 35.3877Z" fill="#131313"/>
<path d="M35.209 35.9853C35.209 36.3305 35.3461 36.6616 35.5902 36.9057C35.8344 37.1498 36.1654 37.287 36.5107 37.287C36.8559 37.287 37.187 37.1498 37.4311 36.9057C37.6752 36.6616 37.8124 36.3305 37.8124 35.9853C37.8124 35.6401 37.6752 35.309 37.4311 35.0649C37.187 34.8207 36.8559 34.6836 36.5107 34.6836C36.1654 34.6836 35.8344 34.8207 35.5902 35.0649C35.3461 35.309 35.209 35.6401 35.209 35.9853Z" fill="#FDFDFD"/>
<path d="M36.5112 37.9559C35.4206 37.9559 34.5059 37.0764 34.5059 35.9506C34.5059 34.8248 35.3854 33.9453 36.5112 33.9453C37.6018 33.9453 38.5165 34.8248 38.5165 35.9506C38.5165 37.0764 37.6018 37.9559 36.5112 37.9559ZM36.5112 35.3877C36.1945 35.3877 35.9131 35.634 35.9131 35.9858C35.9131 36.3376 36.1594 36.5839 36.5112 36.5839C36.863 36.5839 37.1092 36.3376 37.1092 35.9858C37.1092 35.634 36.8278 35.3877 36.5112 35.3877Z" fill="#131313"/>
</g>
</g>
<defs>
<clipPath id="clip0_21633_1182">
<rect width="64" height="64" fill="white"/>
</clipPath>
<clipPath id="clip1_21633_1182">
<rect width="45" height="45" fill="white" transform="translate(9 9)"/>
</clipPath>
</defs>
</svg>
