<svg width="64" height="64" viewBox="0 0 64 64" fill="none" xmlns="http://www.w3.org/2000/svg">
<g clip-path="url(#clip0_21633_1147)">
<path d="M31.9999 63.9999C49.673 63.9999 63.9999 49.673 63.9999 31.9999C63.9999 14.3269 49.673 0 31.9999 0C14.3269 0 0 14.3269 0 31.9999C0 49.673 14.3269 63.9999 31.9999 63.9999Z" fill="#3A99D7"/>
<path d="M37.5717 63.512L18.9878 45.1646L21.7328 42.5844L16.9309 40.0329C16.293 30.9381 17.583 21.9221 27.7171 21.2915V23.4488L36.2815 17.1132L37.0054 17.8586L37.9301 17.1778L33.5798 13.6445L45.9355 19.8367L63.5518 37.3311C61.3158 50.6473 50.8519 61.1826 37.5646 63.512H37.5717Z" fill="#2682BF"/>
<path d="M31.9999 63.9999C49.673 63.9999 63.9999 49.673 63.9999 31.9999C63.9999 14.3269 49.673 0 31.9999 0C14.3269 0 0 14.3269 0 31.9999C0 49.673 14.3269 63.9999 31.9999 63.9999Z" fill="#1E3B60"/>
<path d="M52.5154 23.0422V40.3626C52.5145 40.7867 52.3456 41.1931 52.0458 41.493C51.7459 41.7929 51.3394 41.9617 50.9154 41.9626H13.6C13.1759 41.9617 12.7695 41.7929 12.4696 41.493C12.1697 41.1931 12.0009 40.7867 12 40.3626V23.0422C12.0009 22.6181 12.1697 22.2117 12.4696 21.9118C12.7695 21.6119 13.1759 21.4431 13.6 21.4422H50.9154C51.3394 21.4431 51.7459 21.6119 52.0458 21.9118C52.3456 22.2117 52.5145 22.6181 52.5154 23.0422ZM40.4497 31.699C40.4465 29.6751 39.6916 27.7245 38.3316 26.2255C36.9717 24.7266 35.1034 23.7862 33.0893 23.5868C31.0752 23.3873 29.0588 23.943 27.4313 25.146C25.8037 26.3491 24.6809 28.1138 24.2808 30.0978C23.8806 32.0818 24.2316 34.1437 25.2656 35.8835C26.2996 37.6234 27.943 38.9172 29.877 39.514C31.8109 40.1109 33.8976 39.9681 35.7323 39.1135C37.5669 38.2589 39.0188 36.7534 39.8063 34.8889C40.2317 33.8806 40.4493 32.7968 40.4463 31.7024L40.4497 31.699ZM39.6581 16.2683C39.3082 16.6178 38.8339 16.8141 38.3394 16.8141C37.8448 16.8141 37.3705 16.6178 37.0206 16.2683L34.1238 13.3715V16.7399C34.1238 17.2348 33.9272 17.7094 33.5772 18.0594C33.2273 18.4094 32.7526 18.606 32.2577 18.606C31.7628 18.606 31.2881 18.4094 30.9381 18.0594C30.5882 17.7094 30.3916 17.2348 30.3916 16.7399V13.3715L27.4947 16.2683C27.1445 16.618 26.6697 16.8144 26.1748 16.814C25.6799 16.8137 25.2053 16.6168 24.8556 16.2666C24.5058 15.9164 24.3095 15.4416 24.3098 14.9467C24.3102 14.4517 24.5071 13.9772 24.8573 13.6275L30.9373 7.54746C31.1106 7.37391 31.3164 7.23623 31.543 7.14229C31.7695 7.04835 32.0124 7 32.2577 7C32.503 7 32.7458 7.04835 32.9724 7.14229C33.199 7.23623 33.4048 7.37391 33.5781 7.54746L39.6581 13.6241C39.8317 13.7974 39.9693 14.0032 40.0633 14.2298C40.1572 14.4564 40.2056 14.6992 40.2056 14.9445C40.2056 15.1898 40.1572 15.4326 40.0633 15.6592C39.9693 15.8858 39.8317 16.095 39.6581 16.2683ZM39.6581 49.774L33.5781 55.8573C33.4048 56.0309 33.199 56.1686 32.9724 56.2625C32.7458 56.3565 32.503 56.4048 32.2577 56.4048C32.0124 56.4048 31.7695 56.3565 31.543 56.2625C31.3164 56.1686 31.1106 56.0309 30.9373 55.8573L24.8573 49.774C24.5274 49.4203 24.3477 48.9523 24.3561 48.4687C24.3645 47.9851 24.5604 47.5236 24.9024 47.1816C25.2444 46.8396 25.7058 46.6437 26.1894 46.6353C26.673 46.6269 27.141 46.8066 27.4947 47.1365L30.3916 50.0333V46.6649C30.3916 46.17 30.5882 45.6954 30.9381 45.3454C31.2881 44.9954 31.7628 44.7988 32.2577 44.7988C32.7526 44.7988 33.2273 44.9954 33.5772 45.3454C33.9272 45.6954 34.1238 46.17 34.1238 46.6649V50.0333L37.0206 47.1365C37.1915 46.9533 37.3975 46.8064 37.6264 46.7045C37.8553 46.6026 38.1023 46.5479 38.3528 46.5435C38.6033 46.5392 38.8521 46.5853 39.0844 46.6791C39.3167 46.773 39.5277 46.9127 39.7048 47.0898C39.882 47.2669 40.0216 47.478 40.1155 47.7102C40.2093 47.9425 40.2555 48.1913 40.2511 48.4418C40.2467 48.6923 40.192 48.9393 40.0901 49.1682C39.9882 49.3971 39.8413 49.6031 39.6581 49.774ZM36.1213 33.8447C36.1193 34.3342 35.9888 34.8146 35.7429 35.2378C35.497 35.6611 35.1443 36.0124 34.72 36.2565C34.2927 36.5282 33.8222 36.7253 33.3288 36.8392V37.7352C33.3135 38.0076 33.1945 38.2638 32.9963 38.4512C32.798 38.6387 32.5356 38.7431 32.2627 38.7431C31.9899 38.7431 31.7274 38.6387 31.5292 38.4512C31.3309 38.2638 31.2119 38.0076 31.1966 37.7352V36.8527C30.8873 36.7879 30.5849 36.6931 30.2939 36.5698C29.8215 36.3747 29.4033 36.0684 29.0745 35.6771C28.8981 35.462 28.8125 35.1866 28.8361 34.9093C28.8597 34.6321 28.9906 34.375 29.2008 34.1928C29.4111 34.0107 29.6842 33.9177 29.962 33.9339C30.2397 33.95 30.5002 34.0739 30.688 34.2792C30.7941 34.4125 30.9304 34.5187 31.0855 34.5891C31.261 34.6658 31.4438 34.7245 31.6312 34.7643C31.8268 34.803 32.0249 34.8278 32.224 34.8384C32.6952 34.8395 33.1578 34.7113 33.5613 34.4679C33.9891 34.1917 33.9891 33.9559 33.9891 33.8447C33.9871 33.6714 33.9238 33.5043 33.8105 33.3731C33.6835 33.2299 33.5332 33.1092 33.3659 33.0161C33.1921 32.9274 33.0076 32.8618 32.8168 32.8207C32.6397 32.7827 32.4591 32.7635 32.2779 32.7635C31.9699 32.7655 31.6623 32.7419 31.3583 32.6927C30.9462 32.6243 30.5466 32.4949 30.1726 32.3087C29.7363 32.0904 29.3516 31.7815 29.0442 31.4026C28.6192 30.8885 28.3838 30.2439 28.3773 29.5769C28.3871 29.0706 28.527 28.5754 28.7837 28.1388C29.0403 27.7023 29.4049 27.3391 29.8425 27.0843C30.2599 26.8252 30.7175 26.6373 31.1966 26.5285V25.6696C31.2119 25.3972 31.3309 25.141 31.5292 24.9536C31.7274 24.7661 31.9899 24.6617 32.2627 24.6617C32.5356 24.6617 32.798 24.7661 32.9963 24.9536C33.1945 25.141 33.3135 25.3972 33.3288 25.6696V26.5588C33.6449 26.6359 33.9528 26.7431 34.2484 26.8788C34.6464 27.0577 35.0092 27.3064 35.3196 27.6131C35.5201 27.8133 35.633 28.0848 35.6333 28.3682C35.6336 28.6515 35.5214 28.9233 35.3213 29.1239C35.1212 29.3244 34.8496 29.4373 34.5662 29.4376C34.2829 29.4379 34.0111 29.3257 33.8105 29.1256C33.6834 28.9997 33.5352 28.8971 33.3726 28.8224C33.1921 28.7387 33.0037 28.6733 32.8101 28.627L32.7528 28.6136C32.6014 28.5751 32.4471 28.5492 32.2914 28.5361C31.8312 28.5342 31.3789 28.6552 30.9811 28.8864C30.8489 28.9502 30.7358 29.0475 30.6531 29.1687C30.5703 29.2899 30.5208 29.4306 30.5095 29.5769C30.5193 29.7541 30.5868 29.9232 30.7015 30.0586C30.8179 30.2001 30.9625 30.3159 31.1259 30.3988C31.3099 30.4897 31.5063 30.5532 31.7086 30.5875C31.8968 30.618 32.0872 30.6326 32.2779 30.6312C32.6118 30.6297 32.9449 30.6635 33.2716 30.7323C33.65 30.8151 34.0159 30.9477 34.3596 31.1264C34.7596 31.3417 35.1178 31.6269 35.4173 31.9685C35.872 32.4879 36.1199 33.1544 36.1213 33.8447Z" fill="#FDFDFD"/>
</g>
<defs>
<clipPath id="clip0_21633_1147">
<rect width="64" height="64" fill="white"/>
</clipPath>
</defs>
</svg>
