<svg width="64" height="64" viewBox="0 0 64 64" fill="none" xmlns="http://www.w3.org/2000/svg">
<g clip-path="url(#clip0_21636_1204)">
<path d="M31.9999 63.9999C49.673 63.9999 63.9999 49.673 63.9999 31.9999C63.9999 14.3269 49.673 0 31.9999 0C14.3269 0 0 14.3269 0 31.9999C0 49.673 14.3269 63.9999 31.9999 63.9999Z" fill="#3A99D7"/>
<path d="M37.5717 63.512L18.9878 45.1646L21.7328 42.5844L16.9309 40.0329C16.293 30.9381 17.583 21.9221 27.7171 21.2915V23.4488L36.2815 17.1132L37.0054 17.8586L37.9301 17.1778L33.5798 13.6445L45.9355 19.8367L63.5518 37.3311C61.3158 50.6473 50.8519 61.1826 37.5646 63.512H37.5717Z" fill="#2682BF"/>
<path d="M31.9999 63.9999C49.673 63.9999 63.9999 49.673 63.9999 31.9999C63.9999 14.3269 49.673 0 31.9999 0C14.3269 0 0 14.3269 0 31.9999C0 49.673 14.3269 63.9999 31.9999 63.9999Z" fill="#1E3B60"/>
<path d="M21.5875 31.04C21.5875 26.4267 22.3608 22.8267 23.9075 20.24C25.4808 17.6267 28.1742 16.32 31.9875 16.32C35.8008 16.32 38.4808 17.6267 40.0275 20.24C41.6008 22.8267 42.3875 26.4267 42.3875 31.04C42.3875 35.7067 41.6008 39.36 40.0275 42C38.4808 44.6133 35.8008 45.92 31.9875 45.92C28.1742 45.92 25.4808 44.6133 23.9075 42C22.3608 39.36 21.5875 35.7067 21.5875 31.04ZM37.9075 31.04C37.9075 28.88 37.7608 27.0533 37.4675 25.56C37.2008 24.0667 36.6408 22.8533 35.7875 21.92C34.9342 20.96 33.6675 20.48 31.9875 20.48C30.3075 20.48 29.0408 20.96 28.1875 21.92C27.3342 22.8533 26.7608 24.0667 26.4675 25.56C26.2008 27.0533 26.0675 28.88 26.0675 31.04C26.0675 33.28 26.2008 35.16 26.4675 36.68C26.7342 38.2 27.2942 39.4267 28.1475 40.36C29.0275 41.2933 30.3075 41.76 31.9875 41.76C33.6675 41.76 34.9342 41.2933 35.7875 40.36C36.6675 39.4267 37.2408 38.2 37.5075 36.68C37.7742 35.16 37.9075 33.28 37.9075 31.04Z" fill="#FDFDFD"/>
</g>
<defs>
<clipPath id="clip0_21636_1204">
<rect width="64" height="64" fill="white"/>
</clipPath>
</defs>
</svg>
