<svg width="64" height="64" viewBox="0 0 64 64" fill="none" xmlns="http://www.w3.org/2000/svg">
<g clip-path="url(#clip0_21633_1090)">
<path d="M31.9999 63.9999C49.673 63.9999 63.9999 49.673 63.9999 31.9999C63.9999 14.3269 49.673 0 31.9999 0C14.3269 0 0 14.3269 0 31.9999C0 49.673 14.3269 63.9999 31.9999 63.9999Z" fill="#3A99D7"/>
<path d="M37.5717 63.512L18.9878 45.1646L21.7328 42.5844L16.9309 40.0329C16.293 30.9381 17.583 21.9221 27.7171 21.2915V23.4488L36.2815 17.1132L37.0054 17.8586L37.9301 17.1778L33.5798 13.6445L45.9355 19.8367L63.5518 37.3311C61.3158 50.6473 50.8519 61.1826 37.5646 63.512H37.5717Z" fill="#2682BF"/>
<path d="M31.9999 63.9999C49.673 63.9999 63.9999 49.673 63.9999 31.9999C63.9999 14.3269 49.673 0 31.9999 0C14.3269 0 0 14.3269 0 31.9999C0 49.673 14.3269 63.9999 31.9999 63.9999Z" fill="#1E3B60"/>
<g clip-path="url(#clip1_21633_1090)">
<path d="M41.2131 48.9108C41.2131 48.9108 41.6319 46.3958 39.0494 43.3246C41.5631 36.2733 41.9119 29.8521 41.9119 29.8521C41.9119 29.8521 47.0781 31.0396 47.0781 36.1346C47.0769 44.8608 41.2131 48.9108 41.2131 48.9108ZM26.9731 45.8471C26.9731 45.8471 23.5131 34.7433 23.5131 30.1371C23.5131 28.0646 23.7469 26.2208 24.1106 24.5471H39.8731C40.2394 26.2221 40.4744 28.0671 40.4744 30.1383C40.4744 34.6746 37.0244 45.8471 37.0244 45.8471H26.9731ZM31.9869 27.0858C30.2144 27.0858 28.7769 28.5233 28.7769 30.2971C28.7769 32.0696 30.2144 33.5083 31.9869 33.5083C33.7594 33.5083 35.1981 32.0708 35.1981 30.2971C35.1994 28.5233 33.7606 27.0858 31.9869 27.0858ZM31.2969 12.7446V8.37207H32.5469V12.6333C33.9756 13.6733 37.8419 16.9808 39.5906 23.3521H24.3906C26.0806 17.1558 29.7606 13.8846 31.2969 12.7446ZM22.7856 48.9108C22.7856 48.9108 16.9219 44.8608 16.9219 36.1346C16.9219 31.0396 22.0881 29.8521 22.0881 29.8521C22.0881 29.8521 22.4369 36.2733 24.9494 43.3246C22.3656 46.3971 22.7856 48.9108 22.7856 48.9108ZM34.1131 49.5558L33.0656 48.5083L31.9494 51.9996L30.6219 48.5083L29.7144 50.3221L28.3869 47.0408H35.5769L34.1131 49.5558Z" fill="#FDFDFD"/>
</g>
</g>
<defs>
<clipPath id="clip0_21633_1090">
<rect width="64" height="64" fill="white"/>
</clipPath>
<clipPath id="clip1_21633_1090">
<rect width="40" height="40" fill="white" transform="translate(12 12)"/>
</clipPath>
</defs>
</svg>
