<svg width="66" height="66" viewBox="0 0 66 66" fill="none" xmlns="http://www.w3.org/2000/svg">
<path d="M47.8691 26.6539L30.7551 43.7674C29.5348 44.9882 27.5548 44.9882 26.3342 43.7674L18.1364 35.57C16.9158 34.3493 16.9158 32.3696 18.1364 31.1486C19.3573 29.9283 21.3377 29.9283 22.5575 31.1486L28.5449 37.1357L43.4479 22.2326C44.6684 21.0122 46.6483 21.0122 47.8691 22.2326C49.0893 23.453 49.0893 25.4331 47.8691 26.6539ZM33.0018 1.38867C24.5744 6.36496 15.759 10.1308 6.24805 12.7365V26.9216C6.24805 53.535 29.2649 64.612 33.0018 64.612C36.7393 64.612 59.7568 53.535 59.7568 26.9216V12.7365C50.7864 10.2785 41.4017 6.3482 33.0018 1.38867Z" fill="#1E3B60"/>
<path d="M30.7549 43.7675L47.8688 26.654C49.0891 25.4332 49.0891 23.453 47.8688 22.2327C46.6481 21.0123 44.6681 21.0123 43.4476 22.2327L28.5447 37.1358L22.5573 31.1487C21.3373 29.9284 19.357 29.9284 18.1362 31.1487C16.9156 32.3697 16.9156 34.3494 18.1362 35.5701L26.3339 43.7675C27.5544 44.9883 29.5344 44.9883 30.7549 43.7675Z" fill="white"/>
</svg>
