<svg width="46" height="43" viewBox="0 0 46 43" fill="none" xmlns="http://www.w3.org/2000/svg">
<g clip-path="url(#clip0_21605_559)">
<path d="M25.6911 38.9068L25.6911 32.0514C25.6911 31.1217 26.5188 30.3684 27.5399 30.3684C31.1829 30.3684 33.1646 26.9661 33.4392 20.2512L27.5399 20.2512C26.5188 20.2512 25.6911 19.4972 25.6911 18.5678L25.6911 4.09308C25.6911 3.16382 26.5188 2.41038 27.5399 2.41038L43.2688 2.41038C44.2903 2.41038 45.1172 3.16441 45.1172 4.09309L45.1172 18.5678C45.1172 21.7868 44.7612 24.7408 44.0595 27.3486C43.3399 30.0226 42.2352 32.3606 40.7771 34.2979C39.2768 36.2888 37.4001 37.8511 35.1987 38.9395C32.9825 40.0345 30.4052 40.5898 27.5393 40.5898C26.5188 40.5898 25.6911 39.8365 25.6911 38.9068ZM1.84795 30.3683C0.827401 30.3683 -0.000956605 31.1223 -0.000956691 32.0513L-0.000957332 38.9067C-0.000957419 39.8364 0.827271 40.5897 1.84795 40.5897C4.71277 40.5897 7.29039 40.0342 9.50586 38.9394C11.7076 37.851 13.5854 36.2887 15.0859 34.2978C16.5435 32.3605 17.6482 30.0224 18.368 27.3478C19.0693 24.7391 19.4252 21.7852 19.4252 18.5677L19.4252 4.09297C19.4252 3.1637 18.5973 2.41026 17.5765 2.41026L1.84809 2.41026C0.827533 2.41026 -5.37243e-05 3.16429 -5.38111e-05 4.09296L-5.51632e-05 18.5678C-5.52501e-05 19.4971 0.827402 20.2512 1.84809 20.2512L7.66328 20.2512C7.39276 26.966 5.44006 30.3683 1.84795 30.3683Z" fill="#FA6D2B" fill-opacity="0.49"/>
</g>
<defs>
<clipPath id="clip0_21605_559">
<rect width="45.1181" height="41.0824" fill="white" transform="translate(45.1172 42.041) rotate(-180)"/>
</clipPath>
</defs>
</svg>
