<svg width="46" height="40" viewBox="0 0 46 40" fill="none" xmlns="http://www.w3.org/2000/svg">
<path d="M19.4261 2.64204V9.49738C19.4261 10.4271 18.5984 11.1804 17.5773 11.1804C13.9343 11.1804 11.9526 14.5827 11.6779 21.2976L17.5773 21.2976C18.5984 21.2976 19.4261 22.0517 19.4261 22.981V37.4557C19.4261 38.385 18.5984 39.1384 17.5773 39.1384H1.8484C0.826938 39.1384 0 38.3844 0 37.4557L0 22.981C0 19.762 0.355953 16.8081 1.05765 14.2002C1.77731 11.5262 2.882 9.18821 4.34007 7.25095C5.8404 5.26002 7.7171 3.69771 9.91848 2.60933C12.1347 1.51436 14.712 0.958984 17.5779 0.958984C18.5984 0.958984 19.4261 1.71231 19.4261 2.64204ZM43.2692 11.1806C44.2898 11.1806 45.1181 10.4265 45.1181 9.4975V2.64216C45.1181 1.71242 44.2899 0.959102 43.2692 0.959102C40.4044 0.959102 37.8268 1.51459 35.6113 2.60944C33.4096 3.69782 31.5318 5.26013 30.0312 7.25107C28.5737 9.18833 27.469 11.5264 26.7492 14.201C26.0479 16.8097 25.692 19.7637 25.692 22.9812V37.4559C25.692 38.3851 26.5199 39.1386 27.5407 39.1386L43.2691 39.1386C44.2897 39.1386 45.1172 38.3845 45.1172 37.4559L45.1172 22.981C45.1172 22.0518 44.2898 21.2976 43.2691 21.2976L37.4539 21.2976C37.7244 14.5828 39.6771 11.1806 43.2692 11.1806Z" fill="#FA6D2B" fill-opacity="0.39"/>
</svg>
